<svg width="133" height="56" viewBox="0 0 133 56" fill="none" xmlns="http://www.w3.org/2000/svg">
<path d="M45.0087 42.9455C44.1167 44.0151 43.0776 44.9216 41.8915 45.6665C41.5296 45.8931 41.1546 46.1065 40.7649 46.3039C40.207 46.5849 39.6212 46.8367 39.0062 47.0567C36.557 47.9341 33.8718 48.4086 30.9481 48.4815H30.6194C26.3439 48.4815 22.8993 47.4769 20.2871 45.4676C17.6748 43.4584 16.1494 41.1921 15.7107 38.67C15.382 36.9908 15.6471 35.4189 16.5059 33.9571C17.3634 32.4952 18.5058 31.5821 19.9319 31.2163C20.3693 31.0334 20.8437 30.9419 21.3566 30.9419C22.7085 30.9419 23.9782 31.3077 25.1657 32.038C26.3532 32.7696 26.9655 33.5727 27.0026 34.4501C27.0755 34.9259 26.8011 35.7025 26.1795 36.78C25.558 37.8575 25.1749 38.7071 25.0292 39.3287C24.6634 41.1921 25.0106 42.7454 26.0709 43.9872C27.1298 45.2304 28.6275 45.9249 30.5651 46.0707H31.0038C32.8301 46.0707 34.2456 45.514 35.2515 44.3981C36.2561 43.2848 36.8313 41.8495 36.9784 40.096C37.0513 39.0358 36.9228 38.059 36.5941 37.1631C36.2654 36.2685 35.7538 35.4733 35.0593 34.7788C34.3649 34.0856 33.8347 33.6006 33.4702 33.3262C33.1045 33.0519 32.5743 32.6953 31.8812 32.258C30.0535 31.089 28.1888 29.9373 26.2896 28.8041C26.2524 28.7684 25.9609 28.5947 25.4122 28.2833C24.8648 27.9732 24.4619 27.7359 24.2061 27.5716C23.9503 27.4059 23.5302 27.1236 22.9457 26.7207C22.3612 26.3191 21.904 25.9533 21.5753 25.6247C21.2466 25.296 20.8265 24.8851 20.3149 24.3921C19.8033 23.8991 19.411 23.4047 19.1367 22.9117C18.8623 22.4187 18.5787 21.87 18.2871 21.2669C17.9942 20.6639 17.8021 20.0344 17.7119 19.377C17.6192 18.7183 17.6099 18.0252 17.6841 17.2936C17.9386 14.627 19.3289 12.5064 21.8497 10.9359C24.3705 9.36405 27.5685 8.57812 31.4425 8.57812H32.5385C36.0295 8.74644 38.8657 9.56948 41.0446 11.0472C41.2381 11.1784 41.4263 11.3136 41.6092 11.4554C41.7086 11.5323 41.8066 11.6092 41.9007 11.686C43.3162 12.8298 44.2439 13.9776 44.6826 15.1306C44.8814 15.6501 44.9808 16.1697 44.9808 16.6905C44.9808 16.7369 44.9808 16.782 44.9782 16.8284C44.9583 17.6594 44.7489 18.3923 44.3513 19.0298C44.2532 19.1875 44.1432 19.3399 44.0213 19.4857C43.3811 20.253 42.4044 20.7461 41.0896 20.9661C40.9054 21.0032 40.5953 21.0204 40.1566 21.0204C38.9147 21.0204 37.7909 20.701 36.7863 20.0622C35.7803 19.4221 35.2422 18.6454 35.1693 17.7323C35.0951 17.2578 35.3695 16.6998 35.991 16.0597C36.6126 15.4209 36.9228 14.8457 36.9228 14.3341C36.9599 13.5309 36.6034 12.7437 35.8545 11.9763C35.1057 11.2089 33.9262 10.8259 32.3185 10.8259C30.8938 10.8259 29.7063 11.311 28.756 12.2785C27.8057 13.2473 27.3313 14.407 27.3313 15.7588C27.3313 17.6222 28.4631 19.2484 30.7294 20.6374C30.8394 20.7103 31.5512 21.1583 32.8672 21.98C34.1833 22.8017 35.5073 23.634 36.8406 24.4743C38.1752 25.3145 39.2063 25.9732 39.9379 26.4477C41.0698 27.2508 41.857 27.8181 42.2944 28.1468C42.7251 28.4688 43.4103 29.0825 44.3513 29.9863C44.3685 30.0023 44.3871 30.0208 44.4056 30.038C44.7807 30.3999 45.116 30.7683 45.4116 31.146C45.8794 31.7424 46.2465 32.36 46.5156 32.9975C46.9543 34.0392 47.1915 35.1817 47.2286 36.4235C47.3002 38.9085 46.5606 41.0821 45.0087 42.9455V42.9455Z" fill="#460000"/>
<path d="M47.2286 36.4235C47.1915 35.1817 46.9543 34.0392 46.5156 32.9975C46.2465 32.36 45.8794 31.7424 45.4116 31.146C45.116 30.7683 44.7807 30.3999 44.4056 30.038C44.3871 30.0208 44.3685 30.0023 44.3513 29.9863C43.4103 29.0825 42.7251 28.4688 42.2944 28.1468C41.857 27.8181 41.0698 27.2508 39.9379 26.4477C39.2063 25.9732 38.1752 25.3145 36.8406 24.4743C35.5073 23.634 34.1833 22.8017 32.8672 21.98C31.5512 21.1583 30.8394 20.7103 30.7294 20.6374C28.4631 19.2484 27.3313 17.6222 27.3313 15.7588C27.3313 14.407 27.8057 13.2473 28.756 12.2785C29.7063 11.311 30.8938 10.8259 32.3185 10.8259C33.9262 10.8259 35.1057 11.2089 35.8545 11.9763C36.6034 12.7437 36.9599 13.5309 36.9228 14.3341C36.9228 14.8457 36.6126 15.4209 35.991 16.0597C35.3695 16.6998 35.0951 17.2578 35.1693 17.7323C35.2422 18.6454 35.7803 19.4221 36.7863 20.0622C37.7909 20.701 38.9147 21.0204 40.1566 21.0204C40.5953 21.0204 40.9054 21.0032 41.0896 20.9661C42.4044 20.7461 43.3811 20.253 44.0213 19.4857C44.1432 19.3399 44.2532 19.1875 44.3513 19.0298C44.7489 18.3923 44.9583 17.6594 44.9782 16.8284C44.9808 16.782 44.9808 16.7369 44.9808 16.6905C44.9808 16.1697 44.8814 15.6501 44.6826 15.1306C44.2439 13.9776 43.3162 12.8298 41.9007 11.686C41.8066 11.6092 41.7086 11.5323 41.6092 11.4554C41.4263 11.3136 41.2381 11.1784 41.0446 11.0472C38.8657 9.56948 36.0295 8.74644 32.5385 8.57812H31.4425C27.5685 8.57812 24.3705 9.36405 21.8497 10.9359C19.3289 12.5064 17.9386 14.627 17.6841 17.2936C17.6099 18.0252 17.6192 18.7183 17.7119 19.377C17.8021 20.0344 17.9942 20.6639 18.2871 21.2669C18.5787 21.87 18.8623 22.4187 19.1367 22.9117C19.411 23.4047 19.8033 23.8991 20.3149 24.3921C20.8265 24.8851 21.2466 25.296 21.5753 25.6247C21.904 25.9533 22.3612 26.3191 22.9457 26.7207C23.5302 27.1236 23.9503 27.4059 24.2061 27.5716C24.4619 27.7359 24.8648 27.9732 25.4122 28.2833C25.9609 28.5947 26.2524 28.7684 26.2896 28.8041C28.1888 29.9373 30.0535 31.089 31.8812 32.258C32.5743 32.6953 33.1045 33.0519 33.4702 33.3262C33.8347 33.6006 34.3649 34.0856 35.0593 34.7788C35.7538 35.4733 36.2654 36.2685 36.5941 37.1631C36.9228 38.059 37.0513 39.0358 36.9784 40.096C36.8313 41.8495 36.2561 43.2848 35.2515 44.3981C34.2456 45.514 32.8301 46.0707 31.0038 46.0707H30.5651C28.6275 45.9249 27.1298 45.2304 26.0709 43.9872C25.0106 42.7454 24.6634 41.1921 25.0292 39.3287C25.1749 38.7071 25.558 37.8575 26.1795 36.78C26.8011 35.7025 27.0755 34.9259 27.0026 34.4501C26.9655 33.5727 26.3532 32.7696 25.1657 32.038C23.9782 31.3077 22.7085 30.9419 21.3566 30.9419C20.8437 30.9419 20.3693 31.0334 19.9319 31.2163C18.5058 31.5821 17.3634 32.4952 16.5059 33.9571C15.6471 35.4189 15.382 36.9908 15.7107 38.67C16.1494 41.1921 17.6748 43.4584 20.2871 45.4676C22.8993 47.4769 26.3439 48.4815 30.6194 48.4815H30.9481C33.8718 48.4086 36.557 47.9341 39.0062 47.0567C39.6212 46.8367 40.207 46.5849 40.7649 46.3039C41.1546 46.1065 41.5296 45.8931 41.8915 45.6665C43.0776 44.9216 44.1167 44.0151 45.0087 42.9455C46.5606 41.0821 47.3002 38.9085 47.2286 36.4235V36.4235Z" fill="#460000"/>
<path d="M47.2274 36.4226C47.1902 35.1807 46.953 34.0383 46.5143 32.9965C46.2453 32.3591 45.8782 31.7415 45.4103 31.145C45.1148 30.7673 44.7794 30.3989 44.4044 30.0371C44.3858 30.0198 44.3673 30.0013 44.35 29.9854V40.5881C44.35 40.6186 44.3514 40.6491 44.354 40.6795C44.3739 40.9115 44.2811 41.5954 42.9836 42.9141C41.0685 44.857 40.9876 45.02 40.9002 45.2838C40.7915 45.5846 40.7464 45.9213 40.7637 46.303C41.1533 46.1055 41.5284 45.8921 41.8902 45.6655C43.0764 44.9206 44.1155 44.0141 45.0074 42.9446C46.5594 41.0811 47.2989 38.9076 47.2274 36.4226V36.4226ZM75.1735 44.0141C74.259 42.9366 73.6745 42.0314 73.4201 41.3011C73.163 39.8393 72.5056 36.3126 71.4466 30.7223C71.4016 30.4837 71.3525 30.2504 71.2995 30.0225C71.1763 29.4831 71.0331 28.9702 70.8701 28.4864C70.2167 26.5302 69.2479 25.0193 67.965 23.9524C66.2301 22.5091 64.2474 21.7868 62.0182 21.7868C61.2137 21.7868 60.502 21.861 59.8804 22.0068C57.3954 22.4455 55.569 23.8345 54.4001 26.1724V14.4418C54.4001 12.2139 54.1801 10.6871 53.7414 9.86538C53.3027 9.04367 52.5539 8.63281 51.495 8.63281C50.2889 8.63281 48.6985 8.94294 46.725 9.56453C45.1399 10.0642 43.8491 10.5744 42.8524 11.0993C44.969 12.8925 46.0398 14.7705 46.0398 16.6896C46.0398 17.6597 45.8291 18.5384 45.4103 19.3124V29.544C46.3434 30.497 47.0418 31.5175 47.4911 32.5844C47.9788 33.7414 48.2465 35.0217 48.2863 36.3907C48.3671 39.1302 47.5375 41.5635 45.8212 43.6231C44.7278 44.9365 43.4157 46.0286 41.9048 46.8901C41.9247 47.3288 42.2162 47.5488 42.7795 47.5488H57.0309C57.2854 47.5488 57.4961 47.4666 57.6604 47.3023C57.8248 47.1379 57.907 46.9656 57.907 46.7814V46.2884C57.907 45.9597 57.3225 45.1738 56.1535 43.9319C54.9832 42.6901 54.4001 41.6113 54.4001 40.6981V33.4074L54.5088 33.4617C54.4717 32.9144 54.4902 32.2663 54.5644 31.5161C54.6373 30.7673 54.7911 29.9271 55.0296 28.9953C55.2669 28.0636 55.7056 27.287 56.3457 26.6654C56.9845 26.0451 57.7784 25.7337 58.73 25.7337C59.8618 25.6979 60.7114 26.0809 61.2786 26.8854C61.8445 27.6886 62.2739 28.8032 62.5668 30.2279C63.5529 36.0024 64.0459 39.4563 64.0459 40.5881C64.083 41.3926 63.5622 42.4065 62.4847 43.6298C61.4059 44.8544 60.8479 45.521 60.8121 45.631C60.6663 45.9239 60.6478 46.3255 60.7578 46.8371C60.7578 47.3115 61.0493 47.5488 61.6351 47.5488H75.7222C75.7659 47.5488 75.807 47.5461 75.8481 47.5382C76.0151 47.513 76.1648 47.4348 76.2974 47.3023C76.4617 47.1379 76.5439 46.9656 76.5439 46.7814V46.2884C76.5439 45.8497 76.0867 45.0916 75.1735 44.0141ZM44.6814 15.1296C44.2427 13.9766 43.3149 12.8288 41.8995 11.6851C41.8054 11.6082 41.7073 11.5313 41.6079 11.4545C41.425 11.3127 41.2368 11.1775 41.0433 11.0463C40.6921 11.4439 40.5185 11.9541 40.541 12.5399C40.5808 13.4968 41.0486 14.0442 41.4621 14.3437C41.6649 14.5133 42.0055 14.7108 42.8418 15.0819C43.3362 15.3019 43.7112 15.5882 43.9856 15.9553C44.2241 16.2734 44.35 16.8115 44.35 17.5113V19.0288C44.7476 18.3913 44.957 17.6584 44.9769 16.8274C44.9796 16.781 44.9796 16.7359 44.9796 16.6896C44.9796 16.1687 44.8802 15.6492 44.6814 15.1296Z" fill="#460000"/>
<path d="M47.2301 36.4226C47.193 35.1807 46.9558 34.0383 46.5171 32.9965C46.2481 32.3591 45.8809 31.7415 45.4131 31.145V40.5881C45.486 41.4297 44.928 42.4515 43.7405 43.6576C42.553 44.8636 41.9407 45.521 41.9049 45.631C41.9009 45.6429 41.897 45.6535 41.893 45.6655C43.0792 44.9206 44.1182 44.0141 45.0102 42.9446C46.5622 41.0811 47.3017 38.9076 47.2301 36.4226V36.4226ZM41.9023 11.6851C41.6889 11.8918 41.5895 12.1622 41.6027 12.4962C41.6226 12.9534 41.7949 13.2914 42.1236 13.5101C42.2336 13.6201 42.6179 13.8215 43.2753 14.1131C43.8492 14.3689 44.3197 14.7068 44.6841 15.1296C44.2455 13.9766 43.3177 12.8288 41.9023 11.6851ZM44.6841 15.1296L44.9797 16.8274C44.9824 16.781 44.9824 16.7359 44.9824 16.6896C44.9824 16.1687 44.883 15.6492 44.6841 15.1296ZM75.1763 44.0141C74.2618 42.9366 73.6773 42.0314 73.4228 41.3011C73.1657 39.8393 72.5084 36.3126 71.4494 30.7223C71.4043 30.4837 71.3553 30.2504 71.3023 30.0225C71.179 29.4831 71.0359 28.9702 70.8729 28.4864C70.2195 26.5302 69.2507 25.0193 67.9677 23.9524C66.2329 22.5091 64.2502 21.7868 62.0209 21.7868C61.2165 21.7868 60.5047 21.861 59.8832 22.0068C57.3981 22.4455 55.5718 23.8345 54.4029 26.1724V14.4418C54.4029 12.2139 54.1829 10.6871 53.7442 9.86538C53.3055 9.04367 52.5567 8.63281 51.4977 8.63281C50.2917 8.63281 48.7013 8.94294 46.7278 9.56453C45.1427 10.0642 43.8518 10.5744 42.8552 11.0993C44.9717 12.8925 46.0426 14.7705 46.0426 16.6896C46.0426 17.6597 45.8319 18.5384 45.4131 19.3124V29.544C46.3461 30.497 47.0446 31.5175 47.4939 32.5844C47.9816 33.7414 48.2493 35.0217 48.2891 36.3907C48.3699 39.1302 47.5403 41.5635 45.8239 43.6231C44.7305 44.9365 43.4184 46.0286 41.9076 46.8901C41.9274 47.3288 42.219 47.5488 42.7823 47.5488H57.0337C57.2881 47.5488 57.4989 47.4666 57.6632 47.3023C57.8276 47.1379 57.9097 46.9656 57.9097 46.7814V46.2884C57.9097 45.9597 57.3252 45.1738 56.1563 43.9319C54.986 42.6901 54.4029 41.6113 54.4029 40.6981V33.4074L54.5116 33.4617C54.4744 32.9144 54.493 32.2663 54.5672 31.5161C54.6401 30.7673 54.7938 29.9271 55.0324 28.9953C55.2696 28.0636 55.7083 27.287 56.3485 26.6654C56.9873 26.0451 57.7812 25.7337 58.7328 25.7337C59.8646 25.6979 60.7141 26.0809 61.2814 26.8854C61.8473 27.6886 62.2767 28.8032 62.5696 30.2279C63.5557 36.0024 64.0487 39.4563 64.0487 40.5881C64.0858 41.3926 63.565 42.4065 62.4875 43.6298C61.4086 44.8544 60.8507 45.521 60.8149 45.631C60.6691 45.9239 60.6505 46.3255 60.7605 46.8371C60.7605 47.3115 61.0521 47.5488 61.6379 47.5488H75.725C75.7687 47.5488 75.8098 47.5461 75.8509 47.5382C76.0179 47.513 76.1676 47.4348 76.3002 47.3023C76.4645 47.1379 76.5467 46.9656 76.5467 46.7814V46.2884C76.5467 45.8497 76.0894 45.0916 75.1763 44.0141Z" fill="#460000"/>
<path d="M96.6182 38.0146C96.5811 37.1743 96.2153 36.6998 95.5209 36.5898C94.7893 36.5898 94.3877 36.9185 94.3148 37.5759C94.3068 37.731 94.2949 37.882 94.2764 38.0318C94.1584 39.0245 93.8045 39.8913 93.2148 40.6321C92.9934 40.9105 92.739 41.1702 92.4514 41.4128C91.2824 42.4001 89.912 42.8932 88.3415 42.8932C86.771 42.8932 85.3436 42.3644 84.0659 41.3041C82.7857 40.2438 81.781 38.7647 81.0508 36.8642C87.4084 34.635 90.8437 33.4475 91.3553 33.3003C92.0657 33.0432 92.6846 32.7768 93.2161 32.5012C93.6216 32.2918 93.9742 32.0757 94.2764 31.8557C94.4765 31.7099 94.6541 31.5615 94.8091 31.4104C95.5023 30.7345 95.6666 29.8664 95.3022 28.8061C95.061 28.1554 94.719 27.5245 94.2764 26.9122C93.9715 26.4894 93.6177 26.0772 93.2161 25.673C92.6952 25.1495 92.0935 24.6406 91.411 24.1475C89.4375 22.7215 87.0612 22.0098 84.2846 22.0098C83.2243 22.0098 82.2741 22.1012 81.4351 22.2841C77.927 22.9057 75.1119 24.5491 72.9927 27.217C72.6349 27.6676 72.3128 28.1328 72.0265 28.6139C72.2108 29.217 72.3658 29.8545 72.4931 30.5264C73.5255 35.9736 74.1855 39.5056 74.4532 41.0284C74.6176 41.4552 75.0178 42.1868 75.988 43.3305C77.1251 44.6744 77.6102 45.5598 77.6102 46.2913V46.7844C77.6102 46.9129 77.5956 47.0653 77.5492 47.2323C78.2371 47.5584 78.9382 47.8287 79.6526 48.0461C81.0958 48.4835 82.5484 48.7035 84.0103 48.7035C84.1203 48.7035 84.2846 48.6942 84.5046 48.6756C84.7233 48.6571 84.8877 48.6478 84.9977 48.6478C86.7511 48.5391 88.3309 48.1826 89.7384 47.5796C89.7649 47.569 89.7901 47.557 89.8153 47.5464C90.1506 47.4006 90.47 47.2482 90.7722 47.0905C91.7065 46.6068 92.4858 46.066 93.1101 45.4696C93.9503 44.6665 94.6448 43.7891 95.1922 42.8388C95.7409 41.8886 96.1239 41.0112 96.3439 40.2067C96.5626 39.4035 96.654 38.672 96.6182 38.0146V38.0146ZM80.0091 28.0387C80.4106 25.8837 81.3424 24.6591 82.8042 24.3662C82.9142 24.3304 83.0971 24.3119 83.3529 24.3119C84.339 24.3119 85.2521 24.8235 86.0937 25.8466C86.934 26.8698 87.5741 28.0573 88.0115 29.4091C88.1573 30.1407 88.0486 30.8339 87.6828 31.4926C87.317 32.15 86.7869 32.6072 86.0937 32.863C83.0971 33.9233 81.2151 34.6164 80.4478 34.9451C79.7533 32.4972 79.6075 30.1951 80.0091 28.0387V28.0387ZM75.1795 44.0171C74.265 42.9396 73.6806 42.0343 73.4261 41.3041C73.169 39.8422 72.5116 36.3155 71.4527 30.7252C71.4076 30.4866 71.3586 30.2534 71.3056 30.0254C71.1823 29.486 71.0392 28.9731 70.8761 28.4894C69.527 30.9505 68.9995 33.7748 69.3083 36.9199C69.5415 39.1424 70.1684 41.1464 71.1717 42.8759C72.1816 44.6214 73.438 45.9945 74.9052 46.958C75.218 47.1634 75.5347 47.3582 75.8541 47.5411C76.0211 47.516 76.1709 47.4378 76.3034 47.3052C76.4678 47.1409 76.5499 46.9686 76.5499 46.7844V46.2913C76.5499 45.8527 76.0927 45.0946 75.1795 44.0171V44.0171Z" fill="#460000"/>
<path d="M75.1827 44.0171C74.2682 42.9396 73.6837 42.0343 73.4293 41.3041C73.1721 39.8422 72.5148 36.3155 71.4558 30.7252C71.4108 30.4866 71.3617 30.2534 71.3087 30.0254C70.4353 32.0479 70.1212 34.3089 70.3651 36.8085C70.5851 38.892 71.1603 40.7368 72.092 42.3445C73.0237 43.9534 74.1555 45.1953 75.4902 46.0727C75.8414 46.3033 76.1953 46.5193 76.5531 46.7181V46.2913C76.5531 45.8527 76.0959 45.0946 75.1827 44.0171V44.0171ZM96.6214 38.0146C96.5843 37.1743 96.2185 36.6998 95.524 36.5898C94.7924 36.5898 94.3908 36.9185 94.318 37.5759C94.31 37.731 94.2981 37.882 94.2795 38.0318C94.1616 39.0245 93.8077 39.8913 93.2179 40.6321C92.9966 40.9105 92.7421 41.1702 92.4545 41.4128C91.2856 42.4001 89.9152 42.8932 88.3446 42.8932C86.7741 42.8932 85.3467 42.3644 84.0691 41.3041C82.7888 40.2438 81.7842 38.7647 81.0539 36.8642C87.4116 34.635 90.8469 33.4475 91.3585 33.3003C92.0688 33.0432 92.6878 32.7768 93.2192 32.5012C93.6248 32.2918 93.9773 32.0757 94.2795 31.8557C94.4796 31.7099 94.6572 31.5615 94.8123 31.4104C95.5055 30.7345 95.6698 29.8664 95.3053 28.8061C95.0641 28.1554 94.7222 27.5245 94.2795 26.9122C93.9747 26.4894 93.6208 26.0772 93.2192 25.673C92.6984 25.1495 92.0967 24.6406 91.4141 24.1475C89.4407 22.7215 87.0644 22.0098 84.2878 22.0098C83.2275 22.0098 82.2772 22.1012 81.4383 22.2841C77.9301 22.9057 75.1151 24.5491 72.9959 27.217C72.638 27.6676 72.316 28.1328 72.0297 28.6139C72.2139 29.217 72.369 29.8545 72.4962 30.5264C73.5287 35.9736 74.1887 39.5056 74.4564 41.0284C74.6207 41.4552 75.021 42.1868 75.9911 43.3305C77.1283 44.6744 77.6134 45.5598 77.6134 46.2913V46.7844C77.6134 46.9129 77.5988 47.0653 77.5524 47.2323C78.2402 47.5584 78.9414 47.8287 79.6557 48.0461C81.099 48.4835 82.5516 48.7035 84.0134 48.7035C84.1234 48.7035 84.2878 48.6942 84.5078 48.6756C84.7265 48.6571 84.8908 48.6478 85.0008 48.6478C86.7542 48.5391 88.334 48.1826 89.7416 47.5796C89.7681 47.569 89.7932 47.557 89.8184 47.5464C90.1537 47.4006 90.4731 47.2482 90.7753 47.0905C91.7097 46.6068 92.489 46.066 93.1132 45.4696C93.9535 44.6665 94.648 43.7891 95.1953 42.8388C95.744 41.8886 96.127 41.0112 96.347 40.2067C96.5657 39.4035 96.6572 38.672 96.6214 38.0146V38.0146ZM80.0122 28.0387C80.4138 25.8837 81.3455 24.6591 82.8074 24.3662C82.9174 24.3304 83.1003 24.3119 83.3561 24.3119C84.3421 24.3119 85.2553 24.8235 86.0969 25.8466C86.9371 26.8698 87.5773 28.0573 88.0146 29.4091C88.1604 30.1407 88.0517 30.8339 87.6859 31.4926C87.3202 32.15 86.79 32.6072 86.0969 32.863C83.1003 33.9233 81.2183 34.6164 80.4509 34.9451C79.7564 32.4972 79.6107 30.1951 80.0122 28.0387V28.0387Z" fill="#460000"/>
<path d="M120.507 19.6093C120.261 19.4344 120.025 19.2383 119.798 19.0209C118.652 17.9222 118.071 16.5862 118.071 15.0488C118.071 13.6135 118.576 12.3637 119.573 11.3273C119.48 11.1205 119.342 10.935 119.161 10.7733C118.832 10.4817 118.448 10.3359 118.009 10.3359L91.4796 10.4446C90.968 10.4446 90.7122 10.6832 90.7122 11.1576L90.6579 11.3763C90.6208 11.4863 90.6022 11.6334 90.6022 11.815C90.6022 11.9966 90.6393 12.1437 90.7122 12.2537C90.7851 12.4366 91.3974 13.1311 92.5491 14.3371C93.6995 15.5432 94.2747 16.5664 94.2747 17.4066V25.25C95.2051 26.2559 95.8824 27.3228 96.2945 28.4388L96.3025 28.4626C96.936 30.3022 96.2415 31.4937 95.547 32.1709C95.2038 32.5049 94.7823 32.8217 94.2747 33.1252V35.8342C94.6206 35.6367 95.0408 35.5307 95.5192 35.5307C95.5749 35.5307 95.6305 35.5346 95.6849 35.5439C96.2561 35.634 97.5907 36.0502 97.6755 37.9693C97.7166 38.7287 97.6119 39.5796 97.3654 40.4874C97.1229 41.3754 96.7001 42.3456 96.109 43.3687C95.5139 44.4025 94.7505 45.3673 93.84 46.2368C93.3483 46.7073 92.7691 47.1473 92.1065 47.5528H105.895C106.115 47.5528 106.315 47.4799 106.498 47.3341C106.681 47.1884 106.773 47.024 106.773 46.8411V46.3468C106.773 45.9823 106.178 45.1778 104.991 43.936C103.803 42.6941 103.21 41.6153 103.21 40.7021V33.0284C103.21 32.6268 103.365 32.2703 103.675 31.9589C103.985 31.6487 104.361 31.4937 104.799 31.4937H105.95C107.01 31.4937 107.969 31.886 108.828 32.6719C109.686 33.4578 110.427 34.253 111.048 35.0562C111.668 35.8607 112.18 36.2623 112.583 36.2623H113.733C113.916 36.2623 114.081 36.1708 114.226 35.9879C114.372 35.805 114.446 35.6036 114.446 35.3849V24.5317C114.446 24.3501 114.372 24.1751 114.226 24.0108C114.081 23.8465 113.916 23.7643 113.733 23.7643H112.583C112.18 23.7643 111.668 24.1579 111.048 24.9425C110.427 25.7298 109.686 26.5144 108.828 27.3003C107.969 28.0862 107.01 28.4785 105.95 28.4785H104.799C104.361 28.4785 103.985 28.3235 103.675 28.012C103.365 27.7019 103.21 27.3467 103.21 26.9438V17.5153C103.21 16.3464 103.621 15.351 104.443 14.528C105.264 13.7063 106.28 13.2954 107.484 13.2954H110.828C111.851 13.2954 112.912 13.9621 114.008 15.2954C115.104 16.63 116.071 17.954 116.913 19.2701C117.753 20.5848 118.373 21.2435 118.776 21.2435H119.818C120.33 21.2435 120.585 20.9691 120.585 20.4205V20.3661L120.507 19.6093V19.6093ZM120.764 11.77C120.762 11.7381 120.758 11.7063 120.754 11.6759C120.678 11.7368 120.605 11.8031 120.532 11.8707C120.242 12.1424 119.997 12.4313 119.798 12.7388C119.353 13.4227 119.131 14.1927 119.131 15.0488C119.131 16.2072 119.537 17.2131 120.348 18.0706C120.406 18.1329 120.469 18.1952 120.532 18.2562C120.839 18.5491 121.165 18.7943 121.509 18.9904L120.764 11.77V11.77ZM95.3005 28.8072C95.0593 28.1565 94.7174 27.5256 94.2747 26.9133C93.9699 26.4905 93.616 26.0783 93.2144 25.6741V32.5023C93.62 32.2929 93.9725 32.0768 94.2747 31.8568C94.4748 31.711 94.6524 31.5626 94.8075 31.4115C95.5007 30.7356 95.665 29.8675 95.3005 28.8072ZM96.6166 38.0157C96.5795 37.1754 96.2137 36.7009 95.5192 36.5909C94.7876 36.5909 94.386 36.9196 94.3132 37.577C94.3052 37.7321 94.2933 37.8831 94.2747 38.0329C94.1568 39.0256 93.8029 39.8924 93.2131 40.6332C93.1972 40.9646 92.9772 41.6776 91.7817 42.93C90.1476 44.6411 89.8706 45.0373 89.7659 45.2613C89.5088 45.7186 89.4743 46.2951 89.6612 47.0174C89.6824 47.2016 89.7328 47.3792 89.8136 47.5475C90.1489 47.4017 90.4683 47.2493 90.7705 47.0916C91.7049 46.6079 92.4842 46.0671 93.1084 45.4707C93.9487 44.6676 94.6432 43.7902 95.1905 42.8399C95.7392 41.8896 96.1222 41.0123 96.3422 40.2078C96.5609 39.4046 96.6524 38.673 96.6166 38.0157V38.0157Z" fill="#460000"/>
<path d="M95.3038 28.8072C95.0626 28.1565 94.7206 27.5256 94.278 26.9133V31.8568C94.4781 31.711 94.6557 31.5626 94.8108 31.4115C95.5039 30.7356 95.6683 29.8675 95.3038 28.8072V28.8072ZM119.801 12.7388C119.356 13.4227 119.135 14.1927 119.135 15.0488C119.135 16.2072 119.54 17.2131 120.351 18.0706L119.801 12.7388V12.7388ZM120.51 19.6093C120.264 19.4344 120.028 19.2383 119.801 19.0209C118.655 17.9222 118.074 16.5862 118.074 15.0488C118.074 13.6135 118.579 12.3637 119.576 11.3273C119.483 11.1205 119.345 10.935 119.164 10.7733C118.835 10.4817 118.451 10.3359 118.012 10.3359L91.4828 10.4446C90.9713 10.4446 90.7155 10.6832 90.7155 11.1576L90.6611 11.3763C90.624 11.4863 90.6055 11.6334 90.6055 11.815C90.6055 11.9966 90.6426 12.1437 90.7155 12.2537C90.7884 12.4366 91.4007 13.1311 92.5524 14.3371C93.7028 15.5432 94.278 16.5664 94.278 17.4066V25.25C95.2084 26.2559 95.8856 27.3228 96.2978 28.4388L96.3058 28.4626C96.9393 30.3022 96.2448 31.4937 95.5503 32.1709C95.2071 32.5049 94.7856 32.8217 94.278 33.1252V35.8342C94.6239 35.6367 95.044 35.5307 95.5225 35.5307C95.5781 35.5307 95.6338 35.5346 95.6881 35.5439C96.2594 35.634 97.594 36.0502 97.6788 37.9693C97.7199 38.7287 97.6152 39.5796 97.3687 40.4874C97.1261 41.3754 96.7034 42.3456 96.1123 43.3687C95.5172 44.4025 94.7538 45.3673 93.8433 46.2368C93.3516 46.7073 92.7724 47.1473 92.1097 47.5528H105.899C106.119 47.5528 106.319 47.4799 106.502 47.3341C106.684 47.1884 106.776 47.024 106.776 46.8411V46.3468C106.776 45.9823 106.181 45.1778 104.995 43.936C103.806 42.6941 103.213 41.6153 103.213 40.7021V33.0284C103.213 32.6268 103.368 32.2703 103.679 31.9589C103.989 31.6487 104.364 31.4937 104.803 31.4937H105.953C107.013 31.4937 107.973 31.886 108.832 32.6719C109.689 33.4578 110.43 34.253 111.051 35.0562C111.672 35.8607 112.183 36.2623 112.586 36.2623H113.737C113.92 36.2623 114.084 36.1708 114.23 35.9879C114.375 35.805 114.45 35.6036 114.45 35.3849V24.5317C114.45 24.3501 114.375 24.1751 114.23 24.0108C114.084 23.8465 113.92 23.7643 113.737 23.7643H112.586C112.183 23.7643 111.672 24.1579 111.051 24.9425C110.43 25.7298 109.689 26.5144 108.832 27.3003C107.973 28.0862 107.013 28.4785 105.953 28.4785H104.803C104.364 28.4785 103.989 28.3235 103.679 28.012C103.368 27.7019 103.213 27.3467 103.213 26.9438V17.5153C103.213 16.3464 103.624 15.351 104.446 14.528C105.268 13.7063 106.283 13.2954 107.488 13.2954H110.831C111.855 13.2954 112.915 13.9621 114.011 15.2954C115.107 16.63 116.075 17.954 116.916 19.2701C117.756 20.5848 118.377 21.2435 118.78 21.2435H119.821C120.333 21.2435 120.589 20.9691 120.589 20.4205V20.3661L120.51 19.6093V19.6093ZM96.6199 38.0157C96.5828 37.1754 96.217 36.7009 95.5225 36.5909C94.7909 36.5909 94.3893 36.9196 94.3164 37.577C94.3085 37.7321 94.2965 37.8831 94.278 38.0329V40.5921C94.278 41.4337 93.7028 42.4556 92.5524 43.6616C91.4007 44.8677 90.7884 45.5622 90.7155 45.7451C90.5697 45.9637 90.5697 46.3295 90.7155 46.8411C90.7155 46.9286 90.734 47.0121 90.7738 47.0916C91.7081 46.6079 92.4874 46.0671 93.1117 45.4707C93.9519 44.6676 94.6464 43.7902 95.1938 42.8399C95.7425 41.8896 96.1255 41.0123 96.3455 40.2078C96.5642 39.4046 96.6556 38.673 96.6199 38.0157V38.0157Z" fill="#460000"/>
<path d="M130.287 43.9321C129.137 42.6903 128.562 41.6115 128.562 40.6983V27.5973C128.562 25.3694 128.342 23.8426 127.903 23.0209C127.466 22.1979 126.716 21.787 125.657 21.787C124.486 21.787 122.907 22.0892 120.915 22.6922C118.923 23.2953 117.397 23.9076 116.338 24.5278C115.935 24.7836 115.744 25.1494 115.763 25.6239C115.782 26.0997 115.954 26.4655 116.284 26.7199C116.392 26.8299 116.777 27.0221 117.434 27.2965C118.092 27.5708 118.603 27.9631 118.969 28.4747C119.333 28.9863 119.518 29.7351 119.518 30.7225V40.5883C119.553 41.2099 119.325 41.8487 118.832 42.5061C118.339 43.1648 117.772 43.7943 117.133 44.3973C116.493 45.0003 116.119 45.4112 116.009 45.6312C115.899 45.9241 115.899 46.3257 116.009 46.8373C116.009 47.3117 116.301 47.549 116.887 47.549H131.193C131.74 47.549 132.014 47.2945 132.014 46.7816V46.2886C132.014 45.9599 131.439 45.174 130.287 43.9321ZM127.248 11.8668C126.329 10.9895 125.207 10.5508 123.881 10.5508C122.687 10.5508 121.645 10.9245 120.758 11.672C120.683 11.733 120.61 11.7993 120.537 11.8668C120.247 12.1385 120.001 12.4275 119.803 12.7349C119.357 13.4188 119.136 14.1888 119.136 15.045C119.136 16.2034 119.541 17.2093 120.353 18.0668C120.411 18.1291 120.473 18.1914 120.537 18.2523C120.843 18.5452 121.169 18.7904 121.514 18.9866C122.221 19.3935 123.01 19.5949 123.881 19.5949C125.177 19.5949 126.291 19.1483 127.224 18.2523C128.159 17.3564 128.627 16.2882 128.627 15.045C128.627 13.8018 128.167 12.7429 127.248 11.8668V11.8668Z" fill="#460000"/>
<path d="M130.287 43.9321C129.137 42.6903 128.562 41.6115 128.562 40.6983V27.5973C128.562 25.3694 128.342 23.8426 127.903 23.0209C127.466 22.1979 126.716 21.787 125.657 21.787C124.486 21.787 122.907 22.0892 120.915 22.6922C118.923 23.2953 117.397 23.9076 116.338 24.5278C115.935 24.7836 115.744 25.1494 115.763 25.6239C115.782 26.0997 115.954 26.4655 116.284 26.7199C116.392 26.8299 116.777 27.0221 117.434 27.2965C118.092 27.5708 118.603 27.9631 118.969 28.4747C119.333 28.9863 119.518 29.7351 119.518 30.7225V40.5883C119.553 41.2099 119.325 41.8487 118.832 42.5061C118.339 43.1648 117.772 43.7943 117.133 44.3973C116.493 45.0003 116.119 45.4112 116.009 45.6312C115.899 45.9241 115.899 46.3257 116.009 46.8373C116.009 47.3117 116.301 47.549 116.887 47.549H131.193C131.74 47.549 132.014 47.2945 132.014 46.7816V46.2886C132.014 45.9599 131.439 45.174 130.287 43.9321ZM127.248 11.8668C126.329 10.9895 125.207 10.5508 123.881 10.5508C122.687 10.5508 121.645 10.9245 120.758 11.672C120.683 11.733 120.61 11.7993 120.537 11.8668C120.247 12.1385 120.001 12.4275 119.803 12.7349C119.357 13.4188 119.136 14.1888 119.136 15.045C119.136 16.2034 119.541 17.2093 120.353 18.0668C120.411 18.1291 120.473 18.1914 120.537 18.2523C120.843 18.5452 121.169 18.7904 121.514 18.9866C122.221 19.3935 123.01 19.5949 123.881 19.5949C125.177 19.5949 126.291 19.1483 127.224 18.2523C128.159 17.3564 128.627 16.2882 128.627 15.045C128.627 13.8018 128.167 12.7429 127.248 11.8668V11.8668Z" fill="#460000"/>
<path d="M31.8711 10.9269L22.4569 11.4705L28.7374 18.6533L21.7041 12.2392L21.1719 21.8537L20.6396 12.2392L13.6064 18.6533L19.8868 11.4705L10.4726 10.9269L19.8868 10.3833L13.6064 3.2004L20.6396 9.6145L21.1719 -4.67678e-07L21.7041 9.6145L28.7374 3.20041L22.4569 10.3833L31.8711 10.9269Z" fill="#FFBB54"/>
<path d="M12.75 21.3955L7.14154 21.7126L10.8831 25.9026L6.69309 22.161L6.376 27.7695L6.0589 22.161L1.86889 25.9026L5.61045 21.7126L0.00199195 21.3955L5.61045 21.0784L1.86889 16.8884L6.0589 20.6299L6.376 15.0215L6.69309 20.6299L10.8831 16.8884L7.14154 21.0784L12.75 21.3955Z" fill="#FFBB54"/>
<path d="M11.3867 6.14923L8.18188 6.34175L10.3199 8.88569L7.92563 6.61403L7.74443 10.0192L7.56323 6.61403L5.16894 8.88569L7.30697 6.34175L4.10214 6.14923L7.30697 5.9567L5.16894 3.41277L7.56323 5.68443L7.74443 2.2793L7.92563 5.68443L10.3199 3.41277L8.18188 5.9567L11.3867 6.14923Z" fill="#FFBB54"/>
</svg>
