<svg width="893" height="166" viewBox="0 0 893 166" fill="none" xmlns="http://www.w3.org/2000/svg">
<path d="M226.045 97.9566L217.389 56.1005H203.254L218.923 115.05H231.304L242.919 71.4404L254.533 115.05H266.915L282.584 56.1005H268.449L259.793 97.9566L249.603 56.1005H236.125L226.045 97.9566Z" fill="#460000"/>
<path d="M343.765 89.3005C344.971 69.5777 333.575 54.7856 315.496 54.7856C298.732 54.7856 286.569 67.3863 286.569 85.1368C286.569 102.12 297.417 116.474 316.372 116.474C331.493 116.474 340.478 106.832 343.108 97.4087H330.288C327.987 102.997 322.728 105.627 315.825 105.627C308.374 105.627 300.704 100.258 299.827 89.3005H343.765ZM315.496 64.9757C323.166 64.9757 330.178 70.5638 330.507 79.7678H299.827C301.033 68.7011 309.36 64.9757 315.496 64.9757Z" fill="#460000"/>
<path d="M366.993 85.5751C366.993 71.9883 373.676 65.414 382.223 65.414C390.989 65.414 397.125 73.3031 397.125 85.5751C397.125 98.1757 390.989 105.846 382.223 105.846C373.676 105.846 366.993 99.1619 366.993 85.5751ZM354.501 35.6107V115.05H367.54V107.27C371.047 113.077 377.183 116.474 385.072 116.474C399.097 116.474 410.711 104.531 410.711 85.5751C410.711 66.7289 399.097 54.7856 385.072 54.7856C377.183 54.7856 371.047 58.1823 367.54 63.9896V35.6107H354.501Z" fill="#460000"/>
<path d="M446.032 106.394C435.732 106.394 430.363 99.1619 429.158 90.3962H416.448C417.324 104.421 427.514 116.474 445.813 116.474C461.7 116.474 475.616 108.585 475.616 92.3685C475.616 84.2602 471.452 76.4807 461.92 72.9744C468.932 69.5777 473.534 63.0034 473.534 55.1143C473.534 40.2127 460.386 34.1863 447.127 34.1863C429.596 34.1863 418.639 44.1572 417.434 59.278H430.144C431.349 49.9645 436.718 44.1572 446.36 44.1572C453.702 44.1572 460.166 47.8826 460.166 55.8813C460.166 64.0992 454.03 68.1533 441.758 68.1533H438.471V79.0008H442.306C454.14 79.0008 462.139 82.5071 462.139 92.6972C462.139 101.353 455.236 106.394 446.032 106.394Z" fill="#460000"/>
<path d="M499.159 115.05V100.148H484.257V115.05H499.159Z" fill="#460000"/>
<path d="M557.064 72.2074C554.653 60.3737 544.135 54.7856 532.63 54.7856C519.919 54.7856 508.634 61.4694 508.634 71.8787C508.634 82.7262 516.413 86.9995 526.384 89.0813L535.259 90.8345C541.067 92.0397 545.449 94.1216 545.449 98.9427C545.449 103.764 540.519 106.613 533.616 106.613C525.836 106.613 521.563 103.216 520.358 97.08H507.647C509.072 108.147 518.714 116.474 533.177 116.474C546.545 116.474 558.16 109.681 558.16 97.4087C558.16 85.9038 549.065 82.1784 537.122 79.8774L528.795 78.2338C523.645 77.2477 520.906 75.1658 520.906 71.2213C520.906 67.2767 526.165 64.7566 531.863 64.7566C538.437 64.7566 543.368 66.8384 544.792 72.2074H557.064Z" fill="#460000"/>
<path d="M571.44 56.1005H562.674V65.5236H571.44V99.6001C571.44 111.653 573.96 115.05 586.561 115.05H596.203V105.079H591.491C585.903 105.079 584.479 103.654 584.479 97.6279V65.5236H596.313V56.1005H584.479V40.5414H571.44V56.1005Z" fill="#460000"/>
<path d="M616.347 85.6846C616.347 72.0978 623.579 65.414 631.906 65.414C640.233 65.414 647.465 72.0978 647.465 85.6846C647.465 99.2714 640.233 105.846 631.906 105.846C623.579 105.846 616.347 99.2714 616.347 85.6846ZM631.906 54.7856C617.552 54.7856 602.87 64.4279 602.87 85.6846C602.87 107.051 617.552 116.474 631.906 116.474C646.26 116.474 660.942 107.051 660.942 85.6846C660.942 64.4279 646.26 54.7856 631.906 54.7856Z" fill="#460000"/>
<path d="M703.872 56.21C702.886 56.1005 701.461 55.9909 700.475 55.9909C693.353 56.1005 687.655 60.045 684.478 66.6193V56.1005H671.658V115.05H684.697V84.1506C684.697 72.317 689.409 69.0298 697.626 69.0298C699.599 69.0298 701.681 69.1394 703.872 69.3586V56.21Z" fill="#460000"/>
<path d="M746.452 91.8206C746.452 101.901 740.755 106.722 731.112 106.722C724.538 106.722 720.265 103.654 720.265 98.5044C720.265 91.8206 727.825 89.0813 746.452 87.3282V91.8206ZM728.263 116.474C737.029 116.474 743.823 113.516 747.658 107.051C747.986 111.105 748.315 112.53 748.753 115.05H760.696C759.491 110.119 758.943 102.339 758.943 94.8886C758.943 89.5196 759.162 82.5071 759.162 79.6582C759.491 60.812 748.424 54.3473 734.29 54.3473C720.046 54.3473 710.075 62.6747 709.198 74.618H722.018C722.347 67.4959 727.277 63.9896 733.852 63.9896C740.426 63.9896 746.124 67.0576 746.124 77.1381V78.2338C724.648 80.5348 706.459 84.0411 706.459 98.8331C706.459 109.571 715.444 116.474 728.263 116.474Z" fill="#460000"/>
<path d="M811.465 63.9896C807.958 58.1823 801.822 54.7856 793.933 54.7856C779.908 54.7856 768.294 65.9619 768.294 84.3698C768.294 102.778 779.908 114.064 793.933 114.064C801.822 114.064 807.958 110.667 811.465 104.86V111.763C811.465 115.598 810.698 119.213 808.506 121.733C806.315 124.363 802.589 126.007 796.782 126.007C788.893 126.007 785.387 123.815 784.181 118.227H771.252C773.334 131.157 783.524 136.306 796.453 136.306C805.657 136.306 812.67 134.334 817.381 129.951C822.093 125.568 824.504 118.665 824.504 109.133V56.1005H811.465V63.9896ZM812.012 84.3698C812.012 97.6279 805.219 103.764 796.782 103.764C788.016 103.764 781.88 96.5322 781.88 84.3698C781.88 72.5361 788.016 65.1949 796.782 65.1949C805.219 65.1949 812.012 71.2213 812.012 84.3698Z" fill="#460000"/>
<path d="M892.369 89.3005C893.574 69.5777 882.179 54.7856 864.1 54.7856C847.335 54.7856 835.173 67.3863 835.173 85.1368C835.173 102.12 846.021 116.474 864.976 116.474C880.097 116.474 889.082 106.832 891.712 97.4087H878.892C876.591 102.997 871.331 105.627 864.428 105.627C856.978 105.627 849.308 100.258 848.431 89.3005H892.369ZM864.1 64.9757C871.77 64.9757 878.782 70.5638 879.111 79.7678H848.431C849.636 68.7011 857.964 64.9757 864.1 64.9757Z" fill="#460000"/>
<path d="M76.8389 60.1917L69.7179 72.5258L77.702 77.1354L84.823 64.8013L91.8465 76.7215L99.0945 73.041L92.0314 60.3829L106.525 60.1707L106.089 52.0535L92.2537 51.9311L99.3747 39.597L91.3906 34.9874L84.2696 47.3214L77.6953 35.6606L70.1977 39.1971L77.4605 51.9704L62.7671 52.0673L63.2536 60.2134L76.8389 60.1917Z" fill="#460000"/>
<path d="M111.226 110.457L118.557 123.155L126.341 118.661L119.01 105.963L132.859 106.096L133.261 97.8025L118.613 97.3237L125.668 84.6509L118.313 80.9018L111.425 92.941L103.919 79.9406L96.1849 84.4061L103.632 97.3058L89.7205 97.4099L89.3693 105.675L103.988 106.103L97.0787 119.028L104.267 122.604L111.226 110.457Z" fill="#460000"/>
<path d="M50.2546 105.947L42.9234 118.645L50.6653 123.115L57.9965 110.417L65.0471 122.617L72.3594 118.777L65.5091 105.886L79.754 105.511L79.7386 97.1708L65.5895 97.2657L73.0371 84.3661L65.2952 79.8963L57.8476 92.7959L50.958 80.8902L43.596 84.7021L50.5335 97.4416L35.9447 97.9544L36.4119 106.085L50.2546 105.947Z" fill="#460000"/>
<path fill-rule="evenodd" clip-rule="evenodd" d="M83 155.527C123.056 155.527 155.527 123.056 155.527 83C155.527 42.9442 123.056 10.4726 83 10.4726C42.9442 10.4726 10.4726 42.9442 10.4726 83C10.4726 123.056 42.9442 155.527 83 155.527ZM83 166C128.84 166 166 128.84 166 83C166 37.1604 128.84 0 83 0C37.1604 0 0 37.1604 0 83C0 128.84 37.1604 166 83 166Z" fill="#460000"/>
</svg>
