<?xml version="1.0" encoding="utf-8"?>
<!-- Generator: Adobe Illustrator 27.8.1, SVG Export Plug-In . SVG Version: 6.00 Build 0)  -->
<svg version="1.1" id="standard_full_color" xmlns="http://www.w3.org/2000/svg" xmlns:xlink="http://www.w3.org/1999/xlink"
	 x="0px" y="0px" viewBox="0 0 374.3 179.3" style="enable-background:new 0 0 374.3 179.3;" xml:space="preserve">
<style type="text/css">
	.st0{fill:none;}
	.st1{fill:#CFCFCF;}
	.st2{fill:#808080;}
	.st3{fill:#ACACAC;}
	.st4{fill:#151515;}
	.st5{clip-path:url(#SVGID_00000028301677130856395240000006242724695633056165_);fill:#3F3F3F;}
	.st6{clip-path:url(#SVGID_00000028301677130856395240000006242724695633056165_);fill:#232323;}
	.st7{clip-path:url(#SVGID_00000028301677130856395240000006242724695633056165_);fill:#606060;}
	.st8{clip-path:url(#SVGID_00000028301677130856395240000006242724695633056165_);}
	.st9{fill:#3F3F3F;}
	
		.st10{clip-path:url(#SVGID_00000028301677130856395240000006242724695633056165_);fill:url(#SVGID_00000137828218494001627380000013282982434472991933_);}
	.st11{clip-path:url(#SVGID_00000098902869990233515720000002751895326477536671_);fill:#3F3F3F;}
	.st12{clip-path:url(#SVGID_00000098902869990233515720000002751895326477536671_);fill:#232323;}
	.st13{clip-path:url(#SVGID_00000098902869990233515720000002751895326477536671_);fill:#606060;}
	.st14{clip-path:url(#SVGID_00000098902869990233515720000002751895326477536671_);}
	.st15{fill:#232323;}
	
		.st16{clip-path:url(#SVGID_00000098902869990233515720000002751895326477536671_);fill:url(#SVGID_00000101072656333714424230000010490641702666225823_);}
	.st17{clip-path:url(#SVGID_00000096767954122140225060000010997128931075496380_);fill:#3F3F3F;}
	.st18{clip-path:url(#SVGID_00000096767954122140225060000010997128931075496380_);fill:#232323;}
	.st19{clip-path:url(#SVGID_00000096767954122140225060000010997128931075496380_);fill:#606060;}
	.st20{clip-path:url(#SVGID_00000096767954122140225060000010997128931075496380_);}
	.st21{fill:#606060;}
	
		.st22{clip-path:url(#SVGID_00000096767954122140225060000010997128931075496380_);fill:url(#SVGID_00000043438835659335303380000002135181755437761722_);}
	.st23{clip-path:url(#SVGID_00000068671899400255112230000001089539547407456431_);fill:none;stroke:#ACACAC;stroke-miterlimit:10;}
	.st24{clip-path:url(#SVGID_00000012459779500513494600000003481186266933830545_);fill:none;stroke:#808080;stroke-miterlimit:10;}
	.st25{clip-path:url(#SVGID_00000154398347429131741030000003540476121384312728_);fill:none;stroke:#CFCFCF;stroke-miterlimit:10;}
	.st26{fill:none;stroke:#151515;stroke-miterlimit:10;}
	.st27{fill:#FFFFFF;stroke:#151515;stroke-miterlimit:10;}
</style>
<pattern  x="90.1" y="286.1" width="62.4" height="62.4" patternUnits="userSpaceOnUse" id="Nueva_muestra_de_motivo_2" viewBox="0 -62.4 62.4 62.4" style="overflow:visible;">
	<g>
		<rect x="0" y="-62.4" class="st0" width="62.4" height="62.4"/>
		<g>
			<path class="st1" d="M16.8-30.4c-0.4-0.4-0.4-1,0-1.4l13.7-13.7c0.4-0.4,1-0.4,1.4,0l13.7,13.7c0.2,0.2,0.3,0.4,0.3,0.7
				s-0.1,0.5-0.3,0.7L31.9-16.7c-0.2,0.2-0.4,0.3-0.7,0.3c-0.3,0-0.5-0.1-0.7-0.3L16.8-30.4z M18.9-31.2l12.3,12.3l12.3-12.3
				L31.2-43.4L18.9-31.2z"/>
			<path class="st1" d="M2.2-32.2H0v-30.2h30.2v2.2v9.9c0,0.1,0,0.3-0.1,0.4c0,0.1-0.1,0.2-0.2,0.3c0,0,0,0,0,0L19.8-39.5l-7,7
				c-0.2,0.2-0.4,0.3-0.7,0.3H2.2z M8.2-55.6l-1.4-2.9l-2.6-1.1L8.2-55.6z M2.9-58.1l1.1,2.5l2.8,1.3L2.9-58.1z M7.6-60.3l3-1.1
				l-5.5,0L7.6-60.3z M1-57.3l0,5.5l1.1-3L1-57.3z M5-52.8l2.9,7l10.9,4.4l2.2-2.2l-4.6-10.9l-6.8-2.8l2.9,6.1c0,0,0,0,0,0
				c0,0,0,0,0,0c0,0.1,0.1,0.2,0.1,0.3c0,0,0,0,0,0.1c0,0.1,0,0.2-0.1,0.3c0,0,0,0,0,0c0,0.1-0.1,0.2-0.2,0.3
				c-0.1,0.1-0.2,0.2-0.3,0.2c0,0,0,0-0.1,0c-0.1,0-0.2,0-0.3,0.1c0,0,0,0-0.1,0c0,0,0,0,0,0c-0.1,0-0.2,0-0.3-0.1c0,0-0.1,0-0.1,0
				c0,0,0,0,0,0L5-52.8z M28.2-58.7l-8.2,3.5l8.2,3.4V-58.7z M19-53.4l3.5,8.3l4.9-4.9L19-53.4z M7.1-42.6l-3.4,8.4h6.9L7.1-42.6z
				 M17.3-39.8L9-43.2l3.4,8.2L17.3-39.8z M28.2-61.4l-11.7,0l-6.2,2.2l7,2.9l10.8-4.6V-61.4z M1-34.2h0.6l4.5-11L3.2-52L1-45.8
				L1-34.2z"/>
			<path class="st1" d="M49.6-32.5L39.5-42.6l-7-7c0,0,0,0,0,0c-0.1-0.1-0.1-0.2-0.2-0.3c-0.1-0.1-0.1-0.3-0.1-0.4v-9.8v-2.2h30.2
				v30.2h-2.2h-9.9C50-32.2,49.8-32.3,49.6-32.5z M43.5-41.3L54.5-46l2.8-6.8l-6.1,2.9c0,0,0,0,0,0c0,0,0,0,0,0
				c-0.1,0-0.2,0.1-0.3,0.1c0,0,0,0,0,0c0,0,0,0,0,0c-0.1,0-0.2,0-0.3-0.1c0,0,0,0-0.1,0c-0.1,0-0.2-0.1-0.3-0.2
				c-0.1-0.1-0.2-0.2-0.2-0.3c0,0,0-0.1,0-0.1c0-0.1,0-0.1,0-0.2c0,0,0-0.1,0-0.1c0-0.1,0-0.1,0-0.2c0,0,0-0.1,0-0.1c0,0,0,0,0,0
				l2.9-6.1l-7,2.9l-4.4,10.9L43.5-41.3z M34.2-51.8l8.4-3.5l-8.4-3.4V-51.8z M59.5-58.1l-3.9,3.9l2.9-1.4L59.5-58.1z M55.5-58.5
				l-1.3,2.8l3.9-3.9L55.5-58.5z M57.3-61.4l-5.5,0l3,1.1L57.3-61.4z M53.4-43.3l-8.3,3.5l4.9,4.9L53.4-43.3z M58.7-34.2l-3.5-8.2
				l-3.4,8.2H58.7z M61.4-34.2l0-11.7L59.2-52l-2.9,7l4.6,10.8H61.4z M61.4-57.3l-1.1,2.5l1.1,3L61.4-57.3z M34.2-61.4v0.6l11,4.5
				l6.8-2.8l-6.2-2.2L34.2-61.4z M39.8-45l3.4-8.3l-8.2,3.4L39.8-45z"/>
			<path class="st1" d="M0,0v-30.2h2.2h9.9c0.3,0,0.5,0.1,0.7,0.3l7,7l3.1,3.1l7,7c0.2,0.2,0.3,0.4,0.3,0.7v9.8V0H0z M16.6-8
				L21-18.9L18.8-21l-11,4.6L5-9.6l6.1-2.9c0,0,0,0,0,0c0,0,0.1,0,0.1,0c0.1,0,0.2,0,0.3-0.1c0,0,0.1,0,0.1,0c0.1,0,0.2,0,0.3,0.1
				c0,0,0,0,0.1,0c0.1,0,0.2,0.1,0.3,0.2c0.1,0.1,0.2,0.2,0.2,0.3c0,0,0,0,0,0.1c0,0.1,0.1,0.2,0.1,0.3c0,0,0,0.1,0,0.1
				c0,0.1,0,0.2-0.1,0.3c0,0,0,0,0,0.1c0,0,0,0,0,0L9.6-5L16.6-8z M6.8-3.9l1.4-2.9L4.3-2.8L6.8-3.9z M2.9-4.3l3.9-3.9L3.9-6.8
				L2.9-4.3z M2.1-7.6l-1.1-3L1-5L2.1-7.6z M28.2-10.6l-8.4,3.5l8.4,3.4V-10.6z M22.5-17.3L19.2-9l8.2-3.4L22.5-17.3z M17.3-22.6
				l-4.9-4.9L9-19L17.3-22.6z M3.7-28.2l3.5,8.2l3.4-8.2H3.7z M1-28.2l0,11.7l2.2,6.2l2.9-7L1.5-28.2H1z M10.5-1l-3-1.1L5-1L10.5-1z
				 M28.2-1v-0.6L17.2-6l-6.8,2.8L16.5-1L28.2-1z"/>
			<path class="st1" d="M32.2,0v-2.2v-9.9c0-0.3,0.1-0.5,0.3-0.7l10.1-10.1l7-7c0.2-0.2,0.4-0.3,0.7-0.3h9.8h2.2V0H32.2z M41.3-18.8
				L46-7.9L52.8-5l-2.9-6.1c0,0,0,0,0,0c0,0,0-0.1,0-0.1c0-0.1,0-0.2,0-0.2c0,0,0-0.1,0-0.1c0-0.1,0-0.2,0-0.2c0,0,0-0.1,0-0.1
				c0-0.1,0.1-0.2,0.2-0.3c0.1-0.1,0.2-0.1,0.3-0.2c0,0,0.1,0,0.1,0c0.1,0,0.2,0,0.2,0c0,0,0.1,0,0.1,0c0.1,0,0.2,0,0.3,0
				c0,0,0.1,0,0.1,0c0,0,0,0,0,0l6.1,2.9l-2.9-7L43.5-21L41.3-18.8z M58.1-2.8l-3.9-3.9l1.4,2.8L58.1-2.8z M59.5-4.3l-1.1-2.5
				l-2.8-1.4L59.5-4.3z M34.2-3.7l8.2-3.5l-8.2-3.4V-3.7z M43.3-9l-3.5-8.3l-4.9,4.9L43.3-9z M34.2-1l11.7,0L52-3.2l-7-2.9L34.2-1.5
				V-1z M57.3-1l-2.5-1.1l-3,1.1L57.3-1z M61.4-10.5l-1.1,3L61.4-5L61.4-10.5z M61.4-28.2h-0.6l-4.5,11l2.8,6.8l2.2-6.2L61.4-28.2z
				 M58.6-28.2h-6.9l3.5,8.4L58.6-28.2z M45-22.5l8.3,3.4l-3.4-8.2L45-22.5z"/>
		</g>
	</g>
</pattern>
<pattern  x="90.1" y="286.1" width="62.4" height="62.4" patternUnits="userSpaceOnUse" id="Turkish_Dark_2" viewBox="0 -62.4 62.4 62.4" style="overflow:visible;">
	<g>
		<rect x="0" y="-62.4" class="st0" width="62.4" height="62.4"/>
		<g>
			<path class="st2" d="M16.8-30.4c-0.4-0.4-0.4-1,0-1.4l13.7-13.7c0.4-0.4,1-0.4,1.4,0l13.7,13.7c0.2,0.2,0.3,0.4,0.3,0.7
				s-0.1,0.5-0.3,0.7L31.9-16.7c-0.2,0.2-0.4,0.3-0.7,0.3c-0.3,0-0.5-0.1-0.7-0.3L16.8-30.4z M18.9-31.2l12.3,12.3l12.3-12.3
				L31.2-43.4L18.9-31.2z"/>
			<path class="st2" d="M2.2-32.2H0v-30.2h30.2v2.2v9.9c0,0.1,0,0.3-0.1,0.4c0,0.1-0.1,0.2-0.2,0.3c0,0,0,0,0,0L19.8-39.5l-7,7
				c-0.2,0.2-0.4,0.3-0.7,0.3H2.2z M8.2-55.6l-1.4-2.9l-2.6-1.1L8.2-55.6z M2.9-58.1l1.1,2.5l2.8,1.3L2.9-58.1z M7.6-60.3l3-1.1
				l-5.5,0L7.6-60.3z M1-57.3l0,5.5l1.1-3L1-57.3z M5-52.8l2.9,7l10.9,4.4l2.2-2.2l-4.6-10.9l-6.8-2.8l2.9,6.1c0,0,0,0,0,0
				c0,0,0,0,0,0c0,0.1,0.1,0.2,0.1,0.3c0,0,0,0,0,0.1c0,0.1,0,0.2-0.1,0.3c0,0,0,0,0,0c0,0.1-0.1,0.2-0.2,0.3
				c-0.1,0.1-0.2,0.2-0.3,0.2c0,0,0,0-0.1,0c-0.1,0-0.2,0-0.3,0.1c0,0,0,0-0.1,0c0,0,0,0,0,0c-0.1,0-0.2,0-0.3-0.1c0,0-0.1,0-0.1,0
				c0,0,0,0,0,0L5-52.8z M28.2-58.7l-8.2,3.5l8.2,3.4V-58.7z M19-53.4l3.5,8.3l4.9-4.9L19-53.4z M7.1-42.6l-3.4,8.4h6.9L7.1-42.6z
				 M17.3-39.8L9-43.2l3.4,8.2L17.3-39.8z M28.2-61.4l-11.7,0l-6.2,2.2l7,2.9l10.8-4.6V-61.4z M1-34.2h0.6l4.5-11L3.2-52L1-45.8
				L1-34.2z"/>
			<path class="st2" d="M49.6-32.5L39.5-42.6l-7-7c0,0,0,0,0,0c-0.1-0.1-0.1-0.2-0.2-0.3c-0.1-0.1-0.1-0.3-0.1-0.4v-9.8v-2.2h30.2
				v30.2h-2.2h-9.9C50-32.2,49.8-32.3,49.6-32.5z M43.5-41.3L54.5-46l2.8-6.8l-6.1,2.9c0,0,0,0,0,0c0,0,0,0,0,0
				c-0.1,0-0.2,0.1-0.3,0.1c0,0,0,0,0,0c0,0,0,0,0,0c-0.1,0-0.2,0-0.3-0.1c0,0,0,0-0.1,0c-0.1,0-0.2-0.1-0.3-0.2
				c-0.1-0.1-0.2-0.2-0.2-0.3c0,0,0-0.1,0-0.1c0-0.1,0-0.1,0-0.2c0,0,0-0.1,0-0.1c0-0.1,0-0.1,0-0.2c0,0,0-0.1,0-0.1c0,0,0,0,0,0
				l2.9-6.1l-7,2.9l-4.4,10.9L43.5-41.3z M34.2-51.8l8.4-3.5l-8.4-3.4V-51.8z M59.5-58.1l-3.9,3.9l2.9-1.4L59.5-58.1z M55.5-58.5
				l-1.3,2.8l3.9-3.9L55.5-58.5z M57.3-61.4l-5.5,0l3,1.1L57.3-61.4z M53.4-43.3l-8.3,3.5l4.9,4.9L53.4-43.3z M58.7-34.2l-3.5-8.2
				l-3.4,8.2H58.7z M61.4-34.2l0-11.7L59.2-52l-2.9,7l4.6,10.8H61.4z M61.4-57.3l-1.1,2.5l1.1,3L61.4-57.3z M34.2-61.4v0.6l11,4.5
				l6.8-2.8l-6.2-2.2L34.2-61.4z M39.8-45l3.4-8.3l-8.2,3.4L39.8-45z"/>
			<path class="st2" d="M0,0v-30.2h2.2h9.9c0.3,0,0.5,0.1,0.7,0.3l7,7l3.1,3.1l7,7c0.2,0.2,0.3,0.4,0.3,0.7v9.8V0H0z M16.6-8
				L21-18.9L18.8-21l-11,4.6L5-9.6l6.1-2.9c0,0,0,0,0,0c0,0,0.1,0,0.1,0c0.1,0,0.2,0,0.3-0.1c0,0,0.1,0,0.1,0c0.1,0,0.2,0,0.3,0.1
				c0,0,0,0,0.1,0c0.1,0,0.2,0.1,0.3,0.2c0.1,0.1,0.2,0.2,0.2,0.3c0,0,0,0,0,0.1c0,0.1,0.1,0.2,0.1,0.3c0,0,0,0.1,0,0.1
				c0,0.1,0,0.2-0.1,0.3c0,0,0,0,0,0.1c0,0,0,0,0,0L9.6-5L16.6-8z M6.8-3.9l1.4-2.9L4.3-2.8L6.8-3.9z M2.9-4.3l3.9-3.9L3.9-6.8
				L2.9-4.3z M2.1-7.6l-1.1-3L1-5L2.1-7.6z M28.2-10.6l-8.4,3.5l8.4,3.4V-10.6z M22.5-17.3L19.2-9l8.2-3.4L22.5-17.3z M17.3-22.6
				l-4.9-4.9L9-19L17.3-22.6z M3.7-28.2l3.5,8.2l3.4-8.2H3.7z M1-28.2l0,11.7l2.2,6.2l2.9-7L1.5-28.2H1z M10.5-1l-3-1.1L5-1L10.5-1z
				 M28.2-1v-0.6L17.2-6l-6.8,2.8L16.5-1L28.2-1z"/>
			<path class="st2" d="M32.2,0v-2.2v-9.9c0-0.3,0.1-0.5,0.3-0.7l10.1-10.1l7-7c0.2-0.2,0.4-0.3,0.7-0.3h9.8h2.2V0H32.2z M41.3-18.8
				L46-7.9L52.8-5l-2.9-6.1c0,0,0,0,0,0c0,0,0-0.1,0-0.1c0-0.1,0-0.2,0-0.2c0,0,0-0.1,0-0.1c0-0.1,0-0.2,0-0.2c0,0,0-0.1,0-0.1
				c0-0.1,0.1-0.2,0.2-0.3c0.1-0.1,0.2-0.1,0.3-0.2c0,0,0.1,0,0.1,0c0.1,0,0.2,0,0.2,0c0,0,0.1,0,0.1,0c0.1,0,0.2,0,0.3,0
				c0,0,0.1,0,0.1,0c0,0,0,0,0,0l6.1,2.9l-2.9-7L43.5-21L41.3-18.8z M58.1-2.8l-3.9-3.9l1.4,2.8L58.1-2.8z M59.5-4.3l-1.1-2.5
				l-2.8-1.4L59.5-4.3z M34.2-3.7l8.2-3.5l-8.2-3.4V-3.7z M43.3-9l-3.5-8.3l-4.9,4.9L43.3-9z M34.2-1l11.7,0L52-3.2l-7-2.9L34.2-1.5
				V-1z M57.3-1l-2.5-1.1l-3,1.1L57.3-1z M61.4-10.5l-1.1,3L61.4-5L61.4-10.5z M61.4-28.2h-0.6l-4.5,11l2.8,6.8l2.2-6.2L61.4-28.2z
				 M58.6-28.2h-6.9l3.5,8.4L58.6-28.2z M45-22.5l8.3,3.4l-3.4-8.2L45-22.5z"/>
		</g>
	</g>
</pattern>
<pattern  x="90.1" y="286.1" width="62.4" height="62.4" patternUnits="userSpaceOnUse" id="Turkish_Mid_2" viewBox="0 -62.4 62.4 62.4" style="overflow:visible;">
	<g>
		<rect x="0" y="-62.4" class="st0" width="62.4" height="62.4"/>
		<g>
			<path class="st3" d="M16.8-30.4c-0.4-0.4-0.4-1,0-1.4l13.7-13.7c0.4-0.4,1-0.4,1.4,0l13.7,13.7c0.2,0.2,0.3,0.4,0.3,0.7
				s-0.1,0.5-0.3,0.7L31.9-16.7c-0.2,0.2-0.4,0.3-0.7,0.3c-0.3,0-0.5-0.1-0.7-0.3L16.8-30.4z M18.9-31.2l12.3,12.3l12.3-12.3
				L31.2-43.4L18.9-31.2z"/>
			<path class="st3" d="M2.2-32.2H0v-30.2h30.2v2.2v9.9c0,0.1,0,0.3-0.1,0.4c0,0.1-0.1,0.2-0.2,0.3c0,0,0,0,0,0L19.8-39.5l-7,7
				c-0.2,0.2-0.4,0.3-0.7,0.3H2.2z M8.2-55.6l-1.4-2.9l-2.6-1.1L8.2-55.6z M2.9-58.1l1.1,2.5l2.8,1.3L2.9-58.1z M7.6-60.3l3-1.1
				l-5.5,0L7.6-60.3z M1-57.3l0,5.5l1.1-3L1-57.3z M5-52.8l2.9,7l10.9,4.4l2.2-2.2l-4.6-10.9l-6.8-2.8l2.9,6.1c0,0,0,0,0,0
				c0,0,0,0,0,0c0,0.1,0.1,0.2,0.1,0.3c0,0,0,0,0,0.1c0,0.1,0,0.2-0.1,0.3c0,0,0,0,0,0c0,0.1-0.1,0.2-0.2,0.3
				c-0.1,0.1-0.2,0.2-0.3,0.2c0,0,0,0-0.1,0c-0.1,0-0.2,0-0.3,0.1c0,0,0,0-0.1,0c0,0,0,0,0,0c-0.1,0-0.2,0-0.3-0.1c0,0-0.1,0-0.1,0
				c0,0,0,0,0,0L5-52.8z M28.2-58.7l-8.2,3.5l8.2,3.4V-58.7z M19-53.4l3.5,8.3l4.9-4.9L19-53.4z M7.1-42.6l-3.4,8.4h6.9L7.1-42.6z
				 M17.3-39.8L9-43.2l3.4,8.2L17.3-39.8z M28.2-61.4l-11.7,0l-6.2,2.2l7,2.9l10.8-4.6V-61.4z M1-34.2h0.6l4.5-11L3.2-52L1-45.8
				L1-34.2z"/>
			<path class="st3" d="M49.6-32.5L39.5-42.6l-7-7c0,0,0,0,0,0c-0.1-0.1-0.1-0.2-0.2-0.3c-0.1-0.1-0.1-0.3-0.1-0.4v-9.8v-2.2h30.2
				v30.2h-2.2h-9.9C50-32.2,49.8-32.3,49.6-32.5z M43.5-41.3L54.5-46l2.8-6.8l-6.1,2.9c0,0,0,0,0,0c0,0,0,0,0,0
				c-0.1,0-0.2,0.1-0.3,0.1c0,0,0,0,0,0c0,0,0,0,0,0c-0.1,0-0.2,0-0.3-0.1c0,0,0,0-0.1,0c-0.1,0-0.2-0.1-0.3-0.2
				c-0.1-0.1-0.2-0.2-0.2-0.3c0,0,0-0.1,0-0.1c0-0.1,0-0.1,0-0.2c0,0,0-0.1,0-0.1c0-0.1,0-0.1,0-0.2c0,0,0-0.1,0-0.1c0,0,0,0,0,0
				l2.9-6.1l-7,2.9l-4.4,10.9L43.5-41.3z M34.2-51.8l8.4-3.5l-8.4-3.4V-51.8z M59.5-58.1l-3.9,3.9l2.9-1.4L59.5-58.1z M55.5-58.5
				l-1.3,2.8l3.9-3.9L55.5-58.5z M57.3-61.4l-5.5,0l3,1.1L57.3-61.4z M53.4-43.3l-8.3,3.5l4.9,4.9L53.4-43.3z M58.7-34.2l-3.5-8.2
				l-3.4,8.2H58.7z M61.4-34.2l0-11.7L59.2-52l-2.9,7l4.6,10.8H61.4z M61.4-57.3l-1.1,2.5l1.1,3L61.4-57.3z M34.2-61.4v0.6l11,4.5
				l6.8-2.8l-6.2-2.2L34.2-61.4z M39.8-45l3.4-8.3l-8.2,3.4L39.8-45z"/>
			<path class="st3" d="M0,0v-30.2h2.2h9.9c0.3,0,0.5,0.1,0.7,0.3l7,7l3.1,3.1l7,7c0.2,0.2,0.3,0.4,0.3,0.7v9.8V0H0z M16.6-8
				L21-18.9L18.8-21l-11,4.6L5-9.6l6.1-2.9c0,0,0,0,0,0c0,0,0.1,0,0.1,0c0.1,0,0.2,0,0.3-0.1c0,0,0.1,0,0.1,0c0.1,0,0.2,0,0.3,0.1
				c0,0,0,0,0.1,0c0.1,0,0.2,0.1,0.3,0.2c0.1,0.1,0.2,0.2,0.2,0.3c0,0,0,0,0,0.1c0,0.1,0.1,0.2,0.1,0.3c0,0,0,0.1,0,0.1
				c0,0.1,0,0.2-0.1,0.3c0,0,0,0,0,0.1c0,0,0,0,0,0L9.6-5L16.6-8z M6.8-3.9l1.4-2.9L4.3-2.8L6.8-3.9z M2.9-4.3l3.9-3.9L3.9-6.8
				L2.9-4.3z M2.1-7.6l-1.1-3L1-5L2.1-7.6z M28.2-10.6l-8.4,3.5l8.4,3.4V-10.6z M22.5-17.3L19.2-9l8.2-3.4L22.5-17.3z M17.3-22.6
				l-4.9-4.9L9-19L17.3-22.6z M3.7-28.2l3.5,8.2l3.4-8.2H3.7z M1-28.2l0,11.7l2.2,6.2l2.9-7L1.5-28.2H1z M10.5-1l-3-1.1L5-1L10.5-1z
				 M28.2-1v-0.6L17.2-6l-6.8,2.8L16.5-1L28.2-1z"/>
			<path class="st3" d="M32.2,0v-2.2v-9.9c0-0.3,0.1-0.5,0.3-0.7l10.1-10.1l7-7c0.2-0.2,0.4-0.3,0.7-0.3h9.8h2.2V0H32.2z M41.3-18.8
				L46-7.9L52.8-5l-2.9-6.1c0,0,0,0,0,0c0,0,0-0.1,0-0.1c0-0.1,0-0.2,0-0.2c0,0,0-0.1,0-0.1c0-0.1,0-0.2,0-0.2c0,0,0-0.1,0-0.1
				c0-0.1,0.1-0.2,0.2-0.3c0.1-0.1,0.2-0.1,0.3-0.2c0,0,0.1,0,0.1,0c0.1,0,0.2,0,0.2,0c0,0,0.1,0,0.1,0c0.1,0,0.2,0,0.3,0
				c0,0,0.1,0,0.1,0c0,0,0,0,0,0l6.1,2.9l-2.9-7L43.5-21L41.3-18.8z M58.1-2.8l-3.9-3.9l1.4,2.8L58.1-2.8z M59.5-4.3l-1.1-2.5
				l-2.8-1.4L59.5-4.3z M34.2-3.7l8.2-3.5l-8.2-3.4V-3.7z M43.3-9l-3.5-8.3l-4.9,4.9L43.3-9z M34.2-1l11.7,0L52-3.2l-7-2.9L34.2-1.5
				V-1z M57.3-1l-2.5-1.1l-3,1.1L57.3-1z M61.4-10.5l-1.1,3L61.4-5L61.4-10.5z M61.4-28.2h-0.6l-4.5,11l2.8,6.8l2.2-6.2L61.4-28.2z
				 M58.6-28.2h-6.9l3.5,8.4L58.6-28.2z M45-22.5l8.3,3.4l-3.4-8.2L45-22.5z"/>
		</g>
	</g>
</pattern>
<g>
	<path class="st4" d="M162.4,110.6v-9.8h1.2v9.8H162.4z"/>
	<path class="st4" d="M169.9,107.6h1.2c0.1,1.3,1.3,2.1,3.1,2.1c1.5,0,2.3-0.6,2.3-1.6c0-1-0.9-1.4-1.8-1.7l-1.7-0.5
		c-0.8-0.3-2.8-0.7-2.8-2.6c0-1.6,1.3-2.6,3.3-2.6c2.2,0,3.6,1.1,3.8,3.2h-1.2c-0.1-1.4-1.1-2.2-2.6-2.2c-1.2,0-2.1,0.6-2.1,1.5
		c0,1.1,1.1,1.3,2,1.6l1.6,0.5c1.2,0.4,2.7,0.9,2.7,2.7c0,1.7-1.3,2.8-3.5,2.8C171.7,110.7,170,109.5,169.9,107.6z"/>
	<path class="st4" d="M186.2,110.6v-8.7h-3.4v-1.1h8v1.1h-3.4v8.7H186.2z"/>
	<path class="st4" d="M194.8,110.6l4-9.8h1.2l4,9.8h-1.2l-1.1-2.8h-4.5l-1.1,2.8H194.8z M197.6,106.7h3.6l-1.8-4.4L197.6,106.7z"/>
	<path class="st4" d="M210.1,110.6v-9.8h1.3l5.5,8.1v-8.1h1.2v9.8h-1.3l-5.5-8.1v8.1H210.1z"/>
	<path class="st4" d="M225,110.6v-9.8h4.5c1.7,0,2.9,1,2.9,2.5c0,1.1-0.7,1.9-1.9,2.3c1.3,0.3,2.1,1.2,2.1,2.4c0,1.6-1.2,2.7-3,2.7
		H225z M226.2,105.1h3.3c1.1,0,1.8-0.7,1.8-1.7c0-0.9-0.7-1.5-1.6-1.5h-3.4V105.1z M226.2,109.5h3.6c1,0,1.7-0.7,1.7-1.7
		c0-1.1-0.9-1.7-1.9-1.7h-3.3V109.5z"/>
	<path class="st4" d="M238.9,107.3v-6.5h1.2v6.5c0,1.6,1.2,2.4,2.7,2.4c1.5,0,2.7-0.8,2.7-2.4v-6.5h1.2v6.5c0,1.9-1.4,3.5-3.9,3.4
		C240.3,110.7,238.9,109.2,238.9,107.3z"/>
	<path class="st4" d="M253.5,110.6v-9.8h1.2v8.7h5.3v1.1H253.5z"/>
</g>
<g>
	<rect x="162.4" y="69" class="st4" width="3.9" height="20.5"/>
	<path class="st4" d="M180.3,69h-10.4v20.5h3.9v-7.2h6.4c4.1,0,6.8-2.7,6.8-6.7C187.1,71.6,184.3,69,180.3,69z M173.8,72.6h6.3
		c1.8,0,3,1.2,3,2.9c0,1.6-0.9,3.1-3,3.1h-6.3V72.6z"/>
	<polygon class="st4" points="189.7,89.4 193.6,89.4 193.6,81.2 203.5,81.2 203.5,77.6 193.6,77.6 193.6,72.6 204.3,72.6 204.3,69 
		189.7,69 	"/>
	<path class="st4" d="M216.6,77.8l-3.4-1.1c-1.7-0.6-3.1-1-3.1-2.4c0-1.4,1.3-2.2,3.4-2.2c2.7,0,4.4,1.3,4.5,3.5l0,0.2h4l0-0.3
		c-0.3-4.3-3.5-7-8.4-7c-4.4,0-7.4,2.4-7.4,5.9c0,4,3.6,5.1,6,5.8l3.4,1c1.9,0.6,3,1.2,3,2.6c0,1.6-1.3,2.4-3.7,2.4
		c-3,0-5-1.2-5.3-3.3l0-0.2h-4l0,0.3c0.3,4.1,3.9,6.8,9.3,6.8c4.7,0,7.7-2.4,7.7-6.2C222.5,79.7,219.2,78.6,216.6,77.8z"/>
	<path class="st4" d="M246.5,81.5c-0.6,3.1-2.7,4.8-5.9,4.8c-3.9,0-6.3-2.7-6.3-7.1c0-4.3,2.4-7,6.3-7c3.1,0,5.2,1.8,5.9,4.8l0,0.2
		h4l0-0.3c-0.9-5.2-4.6-8.3-9.9-8.3c-6.2,0-10.3,4.3-10.3,10.6c0,6.4,4.1,10.7,10.3,10.7c5.3,0,8.9-3,9.9-8.3l0.1-0.3h-4L246.5,81.5
		z"/>
	<path class="st4" d="M260.1,73.4c-4.8,0-8,3.3-8,8.1c0,5,3.2,8.4,8,8.4c4.8,0,8-3.3,8-8.4C268.1,76.6,264.9,73.4,260.1,73.4z
		 M264.2,81.5c0,3-1.6,5-4.1,5c-2.5,0-4.1-2-4.1-5c0-2.9,1.6-4.7,4.1-4.7C262.6,76.8,264.2,78.6,264.2,81.5z"/>
	<path class="st4" d="M278.6,73.4c-2,0-3.8,0.8-4.9,2.3l-0.2-1.8h-3.2v15.6h3.9V80c0-1.9,1.4-3.2,3.5-3.2c1.7,0,2.7,1,2.7,2.5v10.1
		h3.9V79.2C284.1,75.7,281.9,73.4,278.6,73.4z"/>
	<path class="st4" d="M295.2,73.4c-2,0-3.8,0.8-4.9,2.3l-0.2-1.8h-3.2v15.6h3.9V80c0-1.9,1.4-3.2,3.5-3.2c1.7,0,2.7,1,2.7,2.5v10.1
		h3.9V79.2C300.8,75.7,298.6,73.4,295.2,73.4z"/>
	<path class="st4" d="M314.1,84.3c-0.5,1.4-1.7,2.2-3.3,2.2c-2.3,0-3.9-1.5-4.2-3.9h11.3v-1.1c-0.1-4.9-3-8.1-7.5-8.1
		c-4.6,0-7.7,3.4-7.7,8.3c0,4.8,3.3,8.2,8,8.2c3.7,0,6.3-2,7.1-5.4l0.1-0.3h-3.8L314.1,84.3z M306.8,79.7c0.5-1.9,1.9-3,3.7-3
		c1.7,0,3,1.1,3.4,3H306.8z"/>
	<path class="st4" d="M330.9,83.2c-0.3,2-1.7,3.3-3.6,3.3c-2.5,0-4.1-1.9-4.1-5c0-2.9,1.6-4.8,4-4.8c2,0,3.4,1.2,3.7,3.2l0,0.2h3.8
		l0-0.3c-0.3-4-3.2-6.5-7.5-6.5c-4.8,0-8,3.3-8,8.1c0,5,3.2,8.3,8.1,8.3c4.1,0,7-2.5,7.4-6.6l0-0.3h-3.8L330.9,83.2z"/>
	<path class="st4" d="M345.8,77.2v-3.4h-3.9v-5.2H338v5.2h-2.7v3.4h2.7v7.4c0,3.1,1.9,4.9,5.3,4.9h2.2v-3.4h-2
		c-1.1,0-1.7-0.6-1.7-1.7v-7.2H345.8z"/>
</g>
<g id="symbol">
	<g>
		<defs>
			<polygon id="SVGID_1_" points="139.4,59 139.4,120.3 86.4,150.9 86.4,89.7 			"/>
		</defs>
		<clipPath id="SVGID_00000119819369511333284450000017910515902611941777_">
			<use xlink:href="#SVGID_1_"  style="overflow:visible;"/>
		</clipPath>
		<polygon style="clip-path:url(#SVGID_00000119819369511333284450000017910515902611941777_);fill:#3F3F3F;" points="33.4,120.3 
			33.4,59 86.4,28.4 86.4,89.7 		"/>
		<polygon style="clip-path:url(#SVGID_00000119819369511333284450000017910515902611941777_);fill:#232323;" points="86.4,28.4 
			139.4,59 139.4,120.3 86.4,89.7 		"/>
		<polygon style="clip-path:url(#SVGID_00000119819369511333284450000017910515902611941777_);fill:#606060;" points="33.4,120.3 
			86.4,89.7 139.4,120.3 86.4,150.9 		"/>
		<g style="clip-path:url(#SVGID_00000119819369511333284450000017910515902611941777_);">
			<polygon class="st9" points="56.1,107.2 56.1,72.1 86.4,54.6 116.7,72.1 116.7,107.2 86.4,124.7 			"/>
			<path class="st3" d="M86.4,55.2l29.8,17.2v34.4l-29.8,17.2l-29.8-17.2V72.4L86.4,55.2 M86.4,54.1L55.6,71.9v35.6l30.8,17.8
				l30.8-17.8V71.9L86.4,54.1L86.4,54.1z"/>
		</g>
		
			<pattern  id="SVGID_00000075881245944180624880000006311021725409522852_" xlink:href="#Turkish_Mid_2" patternTransform="matrix(0.2465 -0.1423 0 0.2836 -6143.437 -7275.2832)">
		</pattern>
		
			<polygon style="clip-path:url(#SVGID_00000119819369511333284450000017910515902611941777_);fill:url(#SVGID_00000075881245944180624880000006311021725409522852_);" points="
			86.4,89.8 117.2,72 117.2,107.4 86.4,125.2 		"/>
	</g>
	<g>
		<defs>
			<polygon id="SVGID_00000137118155292282020480000017151829131840796083_" points="86.4,150.9 33.4,120.3 33.4,59 86.4,89.7 			
				"/>
		</defs>
		<clipPath id="SVGID_00000175289694079560211380000012185031030826224059_">
			<use xlink:href="#SVGID_00000137118155292282020480000017151829131840796083_"  style="overflow:visible;"/>
		</clipPath>
		<polygon style="clip-path:url(#SVGID_00000175289694079560211380000012185031030826224059_);fill:#3F3F3F;" points="33.4,120.3 
			33.4,59 86.4,28.4 86.4,89.7 		"/>
		<polygon style="clip-path:url(#SVGID_00000175289694079560211380000012185031030826224059_);fill:#232323;" points="86.4,28.4 
			139.4,59 139.4,120.3 86.4,89.7 		"/>
		<polygon style="clip-path:url(#SVGID_00000175289694079560211380000012185031030826224059_);fill:#606060;" points="33.4,120.3 
			86.4,89.7 139.4,120.3 86.4,150.9 		"/>
		<g style="clip-path:url(#SVGID_00000175289694079560211380000012185031030826224059_);">
			<polygon class="st15" points="56.1,107.2 56.1,72.1 86.4,54.6 116.7,72.1 116.7,107.2 86.4,124.7 			"/>
			<path class="st2" d="M86.4,55.2l29.8,17.2v34.4l-29.8,17.2l-29.8-17.2V72.4L86.4,55.2 M86.4,54.1L55.6,71.9v35.6l30.8,17.8
				l30.8-17.8V71.9L86.4,54.1L86.4,54.1z"/>
		</g>
		
			<pattern  id="SVGID_00000164512051977748081940000000328705509879439758_" xlink:href="#Turkish_Dark_2" patternTransform="matrix(-0.2466 -0.1423 0 0.2836 -10202.8369 -7284.0542)">
		</pattern>
		
			<polygon style="clip-path:url(#SVGID_00000175289694079560211380000012185031030826224059_);fill:url(#SVGID_00000164512051977748081940000000328705509879439758_);" points="
			86.4,89.8 55.6,72 55.6,107.4 86.4,125.2 		"/>
	</g>
	<g>
		<defs>
			<polygon id="SVGID_00000115495598523003342480000017244477087790801039_" points="139.4,59 86.4,89.7 33.4,59 86.4,28.4 			"/>
		</defs>
		<clipPath id="SVGID_00000052789294977542395750000011865997979844854704_">
			<use xlink:href="#SVGID_00000115495598523003342480000017244477087790801039_"  style="overflow:visible;"/>
		</clipPath>
		<polygon style="clip-path:url(#SVGID_00000052789294977542395750000011865997979844854704_);fill:#3F3F3F;" points="33.4,120.3 
			33.4,59 86.4,28.4 86.4,89.7 		"/>
		<polygon style="clip-path:url(#SVGID_00000052789294977542395750000011865997979844854704_);fill:#232323;" points="86.4,28.4 
			139.4,59 139.4,120.3 86.4,89.7 		"/>
		<polygon style="clip-path:url(#SVGID_00000052789294977542395750000011865997979844854704_);fill:#606060;" points="33.4,120.3 
			86.4,89.7 139.4,120.3 86.4,150.9 		"/>
		<g style="clip-path:url(#SVGID_00000052789294977542395750000011865997979844854704_);">
			<polygon class="st21" points="56.1,107.2 56.1,72.1 86.4,54.6 116.7,72.1 116.7,107.2 86.4,124.7 			"/>
			<path class="st1" d="M86.4,55.2l29.8,17.2v34.4l-29.8,17.2l-29.8-17.2V72.4L86.4,55.2 M86.4,54.1L55.6,71.9v35.6l30.8,17.8
				l30.8-17.8V71.9L86.4,54.1L86.4,54.1z"/>
		</g>
		
			<pattern  id="SVGID_00000169547769885302675170000006141054276725022911_" xlink:href="#Nueva_muestra_de_motivo_2" patternTransform="matrix(0.2472 -0.1409 0.2472 0.1409 -4145.7749 -8447.9004)">
		</pattern>
		
			<polygon style="clip-path:url(#SVGID_00000052789294977542395750000011865997979844854704_);fill:url(#SVGID_00000169547769885302675170000006141054276725022911_);" points="
			55.5,71.9 86.4,54.2 117.3,71.9 86.4,89.5 		"/>
	</g>
	<g>
		<defs>
			<polygon id="SVGID_00000176758002351901787380000012180418446860613772_" points="33.4,120.3 33.4,59 86.4,28.4 86.4,89.7 			"/>
		</defs>
		<clipPath id="SVGID_00000072967001158524254840000017508429185506029208_">
			<use xlink:href="#SVGID_00000176758002351901787380000012180418446860613772_"  style="overflow:visible;"/>
		</clipPath>
		
			<polygon style="clip-path:url(#SVGID_00000072967001158524254840000017508429185506029208_);fill:none;stroke:#ACACAC;stroke-miterlimit:10;" points="
			129.2,114.4 129.2,64.9 86.4,40.2 43.6,64.9 43.6,114.4 86.4,139.1 		"/>
		
			<polygon style="clip-path:url(#SVGID_00000072967001158524254840000017508429185506029208_);fill:none;stroke:#ACACAC;stroke-miterlimit:10;" points="
			126.1,112.6 126.1,66.7 86.4,43.8 46.7,66.7 46.7,112.6 86.4,135.5 		"/>
	</g>
	<g>
		<defs>
			<polygon id="SVGID_00000052811581256378622770000007009387482849297337_" points="86.4,28.4 139.4,59 139.4,120.3 86.4,89.7 			
				"/>
		</defs>
		<clipPath id="SVGID_00000176042054040617172230000009176573889820575135_">
			<use xlink:href="#SVGID_00000052811581256378622770000007009387482849297337_"  style="overflow:visible;"/>
		</clipPath>
		
			<polygon style="clip-path:url(#SVGID_00000176042054040617172230000009176573889820575135_);fill:none;stroke:#808080;stroke-miterlimit:10;" points="
			129.2,114.4 129.2,64.9 86.4,40.2 43.6,64.9 43.6,114.4 86.4,139.1 		"/>
		
			<polygon style="clip-path:url(#SVGID_00000176042054040617172230000009176573889820575135_);fill:none;stroke:#808080;stroke-miterlimit:10;" points="
			126.1,112.6 126.1,66.7 86.4,43.8 46.7,66.7 46.7,112.6 86.4,135.5 		"/>
	</g>
	<g>
		<defs>
			<polygon id="SVGID_00000126314202376177831430000017953908591372291464_" points="33.4,120.3 86.4,89.7 139.4,120.3 86.4,150.9 
							"/>
		</defs>
		<clipPath id="SVGID_00000073719173609151771350000001242926632878136253_">
			<use xlink:href="#SVGID_00000126314202376177831430000017953908591372291464_"  style="overflow:visible;"/>
		</clipPath>
		
			<polygon style="clip-path:url(#SVGID_00000073719173609151771350000001242926632878136253_);fill:none;stroke:#CFCFCF;stroke-miterlimit:10;" points="
			129.2,114.4 129.2,64.9 86.4,40.2 43.6,64.9 43.6,114.4 86.4,139.1 		"/>
		
			<polygon style="clip-path:url(#SVGID_00000073719173609151771350000001242926632878136253_);fill:none;stroke:#CFCFCF;stroke-miterlimit:10;" points="
			126.1,112.6 126.1,66.7 86.4,43.8 46.7,66.7 46.7,112.6 86.4,135.5 		"/>
	</g>
	<polygon class="st26" points="139.4,120.3 139.4,59 86.4,28.4 33.4,59 33.4,120.3 86.4,150.9 	"/>
	<line class="st26" x1="86.4" y1="89.7" x2="86.4" y2="150.9"/>
	<polyline class="st26" points="139.4,59 86.4,89.7 33.4,59 	"/>
	<polygon class="st27" points="90.7,92.1 90.7,87.2 86.4,84.7 82.1,87.2 82.1,92.1 86.4,94.6 	"/>
	<polygon class="st27" points="90.7,30.9 90.7,25.9 86.4,23.5 82.1,25.9 82.1,30.9 86.4,33.4 	"/>
	<polygon class="st27" points="90.7,153.4 90.7,148.4 86.4,145.9 82.1,148.4 82.1,153.4 86.4,155.8 	"/>
	<polygon class="st27" points="143.7,61.5 143.7,56.6 139.4,54.1 135.1,56.6 135.1,61.5 139.4,64 	"/>
	<polygon class="st27" points="143.7,122.7 143.7,117.8 139.4,115.3 135.1,117.8 135.1,122.7 139.4,125.2 	"/>
	<polygon class="st27" points="37.7,61.5 37.7,56.6 33.4,54.1 29.1,56.6 29.1,61.5 33.4,64 	"/>
	<polygon class="st27" points="37.7,122.7 37.7,117.8 33.4,115.3 29.1,117.8 29.1,122.7 33.4,125.2 	"/>
</g>
</svg>
